<?xml version="1.0" encoding="iso-8859-1"?>
<!-- Generator: Adobe Illustrator 19.0.0, SVG Export Plug-In . SVG Version: 6.00 Build 0)  -->
<svg version="1.1" id="Layer_1" xmlns="http://www.w3.org/2000/svg" xmlns:xlink="http://www.w3.org/1999/xlink" x="0px" y="0px"
	 viewBox="0 0 505 505" style="enable-background:new 0 0 505 505;" xml:space="preserve">
<circle style="fill:#FFD05B;" cx="252.5" cy="252.5" r="252.5"/>
<g>
	<path style="fill:#FFFFFF;" d="M342.6,441.2c-6.5,0-12-1.7-16.7-4c-19.3-9.8-29.1-36.4-25.4-48.6l7.5,2.3
		c-2.5,8.2,5,30.9,21.4,39.3c19.8,10,45.9-4.8,73.5-41.8c33.1-44.3,43.8-80.3,31.7-106.8c-9.5-20.9-38.4-47.1-122.3-53.5l-1-0.1
		c-20.3-1.6-41.1,0.9-61.2,3.3c-6.4,0.8-12.9,1.5-19.3,2.2c-17.2,1.7-34.8,2.6-52.1,2.5c-11.8,0-25.6-0.4-38.7-4.6
		c-14.4-4.6-25.6-13.3-31.5-24.5c-4.1-7.7-5.6-16.5-6.9-24.2l-3.5-20.6l7.8-1.3l3.5,20.6c1.3,7.5,2.6,15.3,6.1,21.9
		c5,9.3,14.5,16.7,27,20.6c12,3.8,25,4.2,36.3,4.2c17,0,34.3-0.8,51.3-2.5c6.4-0.6,12.8-1.4,19.2-2.2c20.5-2.4,41.7-4.9,62.7-3.3
		l1,0.1c87.7,6.7,118.5,35.3,128.9,58.1c13.4,29.4,2.4,68-32.5,114.8C381.5,430.3,359.2,441.2,342.6,441.2z"/>
	<path style="fill:#FFFFFF;" d="M91.7,295.5c-1.7-14.6,0.9-29.5,3.4-42.3c0.5-2.4,1.1-5.4,2.4-8.1c1.7-3.3,4.4-6.2,8.4-9
		c11.4-7.9,26.5-11,45.9-9.7l-0.6,7.9c-17.6-1.3-31,1.5-40.9,8.3c-2.9,2-4.8,4-5.9,6.1c-0.9,1.8-1.3,4-1.7,6.1
		c-2.5,12.8-4.8,26.4-3.3,39.9L91.7,295.5z"/>
</g>
<g>
	<path style="fill:#324A5E;" d="M312.1,400.9h-17.6c-1.4,0-2.5-1.1-2.5-2.5v-31.3c0-1.4,1.1-2.5,2.5-2.5h17.6c1.4,0,2.5,1.1,2.5,2.5
		v31.3C314.6,399.8,313.5,400.9,312.1,400.9z"/>
	<path style="fill:#324A5E;" d="M361.8,380.4H158.5c-1.8,0-3.3-1.5-3.3-3.3V99.9c0-1.8,1.5-3.3,3.3-3.3h203.3c1.8,0,3.3,1.5,3.3,3.3
		V377C365.1,378.9,363.6,380.4,361.8,380.4z"/>
</g>
<rect x="178.8" y="120.2" style="fill:#84DBFF;" width="162.6" height="109.8"/>
<circle style="fill:#E6E9EE;" cx="260.1" cy="302.6" r="47.9"/>
<circle style="fill:#CED5E0;" cx="260.1" cy="302.6" r="20.8"/>
<g>
	<rect x="302.4" y="212.9" style="fill:#54C0EB;" width="25" height="17.1"/>
	<rect x="302.4" y="188" style="fill:#54C0EB;" width="25" height="17.1"/>
	<rect x="302.4" y="163.1" style="fill:#54C0EB;" width="25" height="17.1"/>
	<rect x="302.4" y="138.2" style="fill:#54C0EB;" width="25" height="17.1"/>
	<rect x="265.9" y="212.9" style="fill:#54C0EB;" width="25" height="17.1"/>
	<rect x="265.9" y="188" style="fill:#54C0EB;" width="25" height="17.1"/>
	<rect x="229.4" y="212.9" style="fill:#54C0EB;" width="25" height="17.1"/>
	<rect x="229.4" y="188" style="fill:#54C0EB;" width="25" height="17.1"/>
	<rect x="229.4" y="163.1" style="fill:#54C0EB;" width="25" height="17.1"/>
	<rect x="192.9" y="212.9" style="fill:#54C0EB;" width="25" height="17.1"/>
	<rect x="192.9" y="188" style="fill:#54C0EB;" width="25" height="17.1"/>
</g>
<path style="fill:#2B3B4E;" d="M105.4,177.6L105.4,177.6c-3.4,0.5-6.6-1.8-7.1-5.2l-4.6-30.7l12.3-1.9l4.6,30.7
	C111.2,173.9,108.8,177.1,105.4,177.6z"/>
<path style="fill:#324A5E;" d="M111.9,153.6l-21.5,3.3c-1.4,0.2-2.8-0.8-3-2.2L83.2,127c-0.2-1.4,0.8-2.8,2.2-3l21.5-3.3
	c0.5-0.1,0.9,0.3,1,0.7l4.7,31.2C112.7,153.1,112.4,153.6,111.9,153.6z"/>
<path style="fill:#FFFFFF;" d="M86.9,157.4l-21.1,3.2c-1.7,0.3-3.3-0.9-3.5-2.6l-4.1-26.8c-0.3-1.7,0.9-3.3,2.6-3.5l21.1-3.2
	c0.5-0.1,0.9,0.3,1,0.7l4.7,31.2C87.7,156.9,87.4,157.3,86.9,157.4z"/>
<path style="fill:#2B3B4E;" d="M94.9,282L94.9,282c3.4-0.5,6.6,1.8,7.1,5.2l4.6,30.7l-12.3,1.9l-4.6-30.7
	C89.2,285.7,91.5,282.5,94.9,282z"/>
<path style="fill:#324A5E;" d="M88.5,305.9l21.5-3.3c1.4-0.2,2.8,0.8,3,2.2l4.2,27.7c0.2,1.4-0.8,2.8-2.2,3l-21.5,3.3
	c-0.5,0.1-0.9-0.3-1-0.7l-4.7-31.2C87.6,306.5,88,306,88.5,305.9z"/>
<path style="fill:#FFFFFF;" d="M113.5,302.2l21.1-3.2c1.7-0.3,3.3,0.9,3.5,2.6l4.1,26.8c0.3,1.7-0.9,3.3-2.6,3.5l-21.1,3.2
	c-0.5,0.1-0.9-0.3-1-0.7l-4.7-31.2C112.7,302.7,113,302.2,113.5,302.2z"/>
<g>
</g>
<g>
</g>
<g>
</g>
<g>
</g>
<g>
</g>
<g>
</g>
<g>
</g>
<g>
</g>
<g>
</g>
<g>
</g>
<g>
</g>
<g>
</g>
<g>
</g>
<g>
</g>
<g>
</g>
</svg>
