<?xml version="1.0" encoding="iso-8859-1"?>
<!-- Generator: Adobe Illustrator 19.0.0, SVG Export Plug-In . SVG Version: 6.00 Build 0)  -->
<svg version="1.1" id="Layer_1" xmlns="http://www.w3.org/2000/svg" xmlns:xlink="http://www.w3.org/1999/xlink" x="0px" y="0px"
	 viewBox="0 0 512 512" style="enable-background:new 0 0 512 512;" xml:space="preserve">
<path style="fill:#48AEE2;" d="M492.308,472.346H275.687v-84.571c0-10.875-8.817-19.692-19.692-19.692
	c-10.875,0-19.692,8.817-19.692,19.692v84.571H19.692C8.817,472.346,0,481.163,0,492.039c0,10.875,8.817,19.692,19.692,19.692
	h472.615c10.875,0,19.692-8.817,19.692-19.692C512,481.163,503.183,472.346,492.308,472.346z"/>
<path style="fill:#3797D3;" d="M492.308,472.346H275.687v-84.571c0-10.874-8.814-19.69-19.687-19.692v143.648h236.308
	c10.875,0,19.692-8.817,19.692-19.692C512,481.163,503.183,472.346,492.308,472.346z"/>
<path style="fill:#FFE49C;" d="M405.333,407.467H106.667c-10.875,0-19.692-8.817-19.692-19.692V19.961
	c0-10.875,8.817-19.692,19.692-19.692h174.588c5.224,0,10.232,2.074,13.924,5.767l124.079,124.079
	c3.693,3.693,5.769,8.701,5.769,13.924v243.736C425.026,398.651,416.209,407.467,405.333,407.467z"/>
<g>
	<path style="fill:#FFD155;" d="M419.257,130.115L295.18,6.038c-3.693-3.693-8.701-5.767-13.924-5.767H256v407.198h149.333
		c10.875,0,19.692-8.817,19.692-19.692V144.04C425.026,138.818,422.951,133.808,419.257,130.115z"/>
	<path style="fill:#FFD155;" d="M298.268,247.644h-84.536c-10.875,0-19.692-8.817-19.692-19.692s8.817-19.692,19.692-19.692h84.536
		c10.875,0,19.692,8.817,19.692,19.692S309.143,247.644,298.268,247.644z"/>
	<path style="fill:#FFD155;" d="M298.268,310.427h-84.536c-10.875,0-19.692-8.817-19.692-19.692s8.817-19.692,19.692-19.692h84.536
		c10.875,0,19.692,8.817,19.692,19.692C317.96,301.61,309.143,310.427,298.268,310.427z"/>
</g>
<g>
	<path style="fill:#FFBE00;" d="M298.268,208.259H256v39.385h42.268c10.875,0,19.692-8.817,19.692-19.692
		S309.143,208.259,298.268,208.259z"/>
	<path style="fill:#FFBE00;" d="M298.268,271.042H256v39.385h42.268c10.875,0,19.692-8.817,19.692-19.692
		S309.143,271.042,298.268,271.042z"/>
	<path style="fill:#FFBE00;" d="M419.257,130.115L295.18,6.038c-2.672-2.673-6.038-4.483-9.672-5.287v119.345
		c0,10.875,8.817,19.692,19.692,19.692h119.345C423.74,136.154,421.93,132.788,419.257,130.115z"/>
</g>
<g>
</g>
<g>
</g>
<g>
</g>
<g>
</g>
<g>
</g>
<g>
</g>
<g>
</g>
<g>
</g>
<g>
</g>
<g>
</g>
<g>
</g>
<g>
</g>
<g>
</g>
<g>
</g>
<g>
</g>
</svg>
